<svg width="135" height="152" viewBox="0 0 135 152" fill="none" xmlns="http://www.w3.org/2000/svg">
<path d="M97.7758 95.3866L99.9618 100.941L86.7703 106.017L84.0252 99.0434L97.7758 95.3866Z" fill="white" stroke="#020000" stroke-width="0.5" stroke-linecap="round" stroke-linejoin="round"/>
<path d="M110.807 113.214C99.6264 113.217 105.515 98.5548 95.8597 103.857L93.3762 96.3821L100.631 94.0302C101.232 93.8207 101.89 93.8439 102.475 94.0953C103.06 94.3467 103.529 94.8081 103.791 95.3884L110.807 113.214Z" fill="white" stroke="#020000" stroke-width="0.5" stroke-linecap="round" stroke-linejoin="round"/>
<path d="M129.451 131.22L126.175 136.367L112.858 131.537L116.972 125.074L129.451 131.22Z" fill="white" stroke="#020000" stroke-width="0.5" stroke-linecap="round" stroke-linejoin="round"/>
<path d="M123.023 151.515C115.459 144.466 131.987 138.292 120.887 135.775L125.608 129.136L132.555 132.091C132.834 132.189 133.088 132.349 133.296 132.559C133.504 132.769 133.661 133.024 133.756 133.304C133.851 133.585 133.88 133.883 133.843 134.176C133.805 134.47 133.701 134.751 133.538 134.998L123.023 151.515Z" fill="white" stroke="#020000" stroke-width="0.5" stroke-linecap="round" stroke-linejoin="round"/>
<path d="M88.2079 97.3508C92.4191 100.026 95.6455 116.723 95.6455 116.723L43.8066 126.788C30.2777 130.721 29.1924 117.545 30.3597 114.039L45.4634 68.6855L65.3013 71.5942L54.0965 105.568L88.2079 97.3508Z" fill="white"/>
<mask id="mask0_25_3102" style="mask-type:luminance" maskUnits="userSpaceOnUse" x="30" y="68" width="66" height="60">
<path d="M88.2079 97.3508C92.4191 100.026 95.6455 116.723 95.6455 116.723L43.8066 126.788C30.2777 130.721 29.1924 117.545 30.3597 114.039L45.4634 68.6855L65.3013 71.5942L54.0965 105.568L88.2079 97.3508Z" fill="white"/>
</mask>
<g mask="url(#mask0_25_3102)">
<path d="M42.9348 127.994C39.4477 137.577 20.1351 132.329 22.4837 123.294C25.9706 113.71 45.2833 118.959 42.9348 127.994Z" fill="#EFF1F7"/>
<path d="M80.6009 95.3865C89.5286 101.915 88.238 112.403 88.238 112.403" stroke="#020000" stroke-width="0.5" stroke-linecap="round" stroke-linejoin="round"/>
<path d="M53.7349 86.154C49.6328 82.1117 54.7599 103.556 54.7599 103.556L59.4706 104.273C59.4706 104.273 69.0771 120.082 72.5425 121.559C76.008 123.036 108.172 120.567 108.172 120.567C108.172 120.567 86.5436 93.2743 87.3888 88.8349C88.234 84.3955 53.7349 86.154 53.7349 86.154Z" fill="#EFF1F7"/>
<path d="M56.2591 103.556C58.5562 103.464 59.6842 129.987 67.2374 126.803C74.7907 123.619 67.5428 107.674 67.5428 107.674" fill="#EFF1F7"/>
</g>
<path d="M88.2079 97.3508C92.4191 100.026 95.6455 116.723 95.6455 116.723L43.8066 126.788C30.2777 130.721 29.1924 117.545 30.3597 114.039L45.4634 68.6855L65.3013 71.5942L54.0965 105.568L88.2079 97.3508Z" stroke="#020000" stroke-width="0.5" stroke-linecap="round" stroke-linejoin="round"/>
<path d="M45.7683 69.1677C46.6518 69.4406 71.508 66.4034 68.631 67.4109C69.8173 70.5976 82.6553 105.1 84.1263 109.054C82.7007 108.74 87.2351 112.917 94.58 114.324C99.9618 115.355 97.0429 116.654 99.9619 117.991C106.942 118.709 101.363 121.443 110.807 121.776C120.25 122.109 121.906 123.341 123.257 124.045C126.664 124.854 107.81 144.808 108.093 143.208C105.472 142.156 72.4707 128.909 69.0001 127.516C62.328 128.094 56.6609 90.5316 53.0453 84.7421" fill="white"/>
<mask id="mask1_25_3102" style="mask-type:luminance" maskUnits="userSpaceOnUse" x="45" y="67" width="79" height="77">
<path d="M45.7683 69.1677C46.6518 69.4406 71.508 66.4034 68.631 67.4109C69.8173 70.5976 82.6553 105.1 84.1263 109.054C82.7007 108.74 87.2351 112.917 94.58 114.324C99.9618 115.355 97.0429 116.654 99.9619 117.991C106.942 118.709 101.363 121.443 110.807 121.776C120.25 122.109 121.906 123.341 123.257 124.045C126.664 124.854 107.81 144.808 108.093 143.208C105.472 142.156 72.4707 128.909 69.0001 127.516C62.328 128.094 56.6609 90.5316 53.0453 84.7421" fill="white"/>
</mask>
<g mask="url(#mask1_25_3102)">
<path d="M76.1347 88.8975C70.4105 65.591 43.9413 79.5788 43.9413 79.5788L64.6951 63.0682L75.0372 65.9642C75.0372 65.9642 77.0135 92.4755 76.1347 88.8975Z" fill="#EFF1F7"/>
<path d="M73.2146 121.522C76.1027 129.725 64.7055 133.666 60.4082 126.568C55.5317 117.573 69.5935 112.824 73.2146 121.522Z" fill="#EFF1F7"/>
<path d="M53.0453 74.7041C57.8361 83.4441 67.0888 79.6611 67.0888 79.6611" stroke="#020000" stroke-width="0.5" stroke-linecap="round" stroke-linejoin="round"/>
<path d="M63.2702 81.6178C82.3387 126.132 71.5708 108.941 114.087 130.721" stroke="#020000" stroke-width="0.5" stroke-linecap="round" stroke-linejoin="round"/>
</g>
<path d="M45.7683 69.1677C46.6518 69.4406 71.508 66.4034 68.631 67.4109C69.8173 70.5976 82.6553 105.1 84.1263 109.054C82.7007 108.74 87.2351 112.917 94.58 114.324C99.9618 115.355 97.0429 116.654 99.9619 117.991C106.942 118.709 101.363 121.443 110.807 121.776C120.25 122.109 121.906 123.341 123.257 124.045C126.664 124.854 107.81 144.808 108.093 143.208C105.472 142.156 72.4707 128.909 69.0001 127.516C62.328 128.094 56.6609 90.5316 53.0453 84.7421" stroke="#020000" stroke-width="0.5" stroke-linecap="round" stroke-linejoin="round"/>
<path d="M8.67493 65.1388C12.5982 74.623 13.8595 72.9355 25.7511 69.6129C38.7434 67.3839 41.9922 47.7031 51.1951 41.0152L40.9028 36.3536C40.9028 36.3536 27.5802 46.9538 21.9173 49.1101C16.2544 51.2665 8.67493 65.1388 8.67493 65.1388Z" fill="#242424"/>
<mask id="mask2_25_3102" style="mask-type:luminance" maskUnits="userSpaceOnUse" x="8" y="36" width="44" height="37">
<path d="M8.67493 65.1388C12.5982 74.623 13.8595 72.9355 25.7511 69.6129C38.7434 67.3839 41.9922 47.7031 51.1951 41.0152L40.9028 36.3536C40.9028 36.3536 27.5802 46.9538 21.9173 49.1101C16.2544 51.2665 8.67493 65.1388 8.67493 65.1388Z" fill="white"/>
</mask>
<g mask="url(#mask2_25_3102)">
<path d="M24.7968 70.7434C42.7043 63.0823 30.9076 51.196 36.5546 47.5771C42.2016 43.9582 41.5977 53.1608 41.5977 53.1608L36.1628 65.9344" fill="#242424"/>
<path d="M24.7968 70.7434C42.7043 63.0823 30.9076 51.196 36.5546 47.5771C42.2016 43.9582 41.5977 53.1608 41.5977 53.1608L36.1628 65.9344" stroke="#020000" stroke-width="0.5" stroke-linecap="round" stroke-linejoin="round"/>
<path d="M11.0423 51.2666C8.48914 56.742 21.5847 68.7406 24.1379 69.042C26.6911 69.3433 23.1471 70.2164 23.1471 70.2164C13.4283 69.887 5.9565 54.0893 8.73626 51.2666" fill="white"/>
<path d="M11.0423 51.2666C8.48914 56.742 21.5847 68.7406 24.1379 69.042C26.6911 69.3433 23.1471 70.2164 23.1471 70.2164C13.4283 69.887 5.9565 54.0893 8.73626 51.2666" stroke="#020000" stroke-width="0.5" stroke-linecap="round" stroke-linejoin="round"/>
</g>
<path d="M8.67493 65.1388C12.5982 74.623 13.8595 72.9355 25.7511 69.6129C38.7434 67.3839 41.9922 47.7031 51.1951 41.0152L40.9028 36.3536C40.9028 36.3536 27.5802 46.9538 21.9173 49.1101C16.2544 51.2665 8.67493 65.1388 8.67493 65.1388Z" stroke="#020000" stroke-width="0.5" stroke-linecap="round" stroke-linejoin="round"/>
<path d="M40.4788 36.8138C43.8478 33.8198 47.6712 34.4883 51.6617 34.3937C56.3646 34.8589 68.0996 36.3091 69.3888 41.9659C68.5501 48.1661 61.7681 63.441 64.65 67.2192L41.8466 68.1425C43.5315 57.3553 34.7749 56.0704 40.8607 44.7038" fill="#242424"/>
<mask id="mask3_25_3102" style="mask-type:luminance" maskUnits="userSpaceOnUse" x="38" y="34" width="32" height="35">
<path d="M40.4788 36.8138C43.8478 33.8198 47.6712 34.4883 51.6617 34.3937C56.3646 34.8589 68.0996 36.3091 69.3888 41.9659C68.5501 48.1661 61.7681 63.441 64.65 67.2192L41.8466 68.1425C43.5315 57.3553 34.7749 56.0704 40.8607 44.7038" fill="white"/>
</mask>
<g mask="url(#mask3_25_3102)">
<path d="M37.965 64.5831C54.8921 66.0675 58.4758 47.0775 61.2862 49.5417C63.0478 47.7747 62.1989 60.4702 62.1989 60.4702L57.7467 66.12L37.0652 72.8772" fill="#000002"/>
<path d="M49.405 34.3907C49.5023 36.9863 44.0102 38.1239 44.0102 38.1239C44.0102 38.1239 45.5751 55.7402 39.398 58.1379C33.221 60.5355 34.0239 53.5668 34.0239 53.5668L40.757 30.526" fill="#000002"/>
</g>
<path d="M40.4788 36.8138C43.8478 33.8198 47.6712 34.4883 51.6617 34.3937C56.3646 34.8589 68.0996 36.3091 69.3888 41.9659C68.5501 48.1661 61.7681 63.441 64.65 67.2192L41.8466 68.1425C43.5315 57.3553 34.7749 56.0704 40.8607 44.7038" stroke="#020000" stroke-width="0.5" stroke-linecap="round" stroke-linejoin="round"/>
<path d="M24.1062 111.176L1 105.032L27.0899 6.78633C28.1399 2.83247 31.58 0.315625 34.7735 1.16475L46.3148 4.23359C49.5084 5.08272 51.246 8.97637 50.1961 12.9302L24.1062 111.176Z" fill="#FEA897"/>
<mask id="mask4_25_3102" style="mask-type:luminance" maskUnits="userSpaceOnUse" x="1" y="1" width="50" height="111">
<path d="M24.1062 111.176L1 105.032L27.0899 6.78633C28.1399 2.83247 31.58 0.315625 34.7735 1.16475L46.3148 4.23359C49.5084 5.08272 51.246 8.97637 50.1961 12.9302L24.1062 111.176Z" fill="white"/>
</mask>
<g mask="url(#mask4_25_3102)">
<path d="M32.501 17.369L28.9194 16.4166L4.15474 109.552L7.73632 110.504L32.501 17.369Z" fill="#F38C79"/>
<path d="M38.9413 19.0827L35.3598 18.1302L10.5924 111.264L14.1739 112.216L38.9413 19.0827Z" fill="#F38C79"/>
<path d="M45.1231 20.7252L41.5415 19.7728L16.7769 112.908L20.3584 113.86L45.1231 20.7252Z" fill="#F38C79"/>
<path d="M56.4998 4.60771L25.5997 -3.60864L21.6037 11.4195L52.5039 19.6358L56.4998 4.60771Z" fill="white" stroke="#020000" stroke-width="0.5" stroke-linecap="round" stroke-linejoin="round"/>
<path d="M49.6405 18.306L21.4993 10.8232L20.6002 14.2046L48.7414 21.6873L49.6405 18.306Z" fill="white" stroke="#020000" stroke-width="0.5" stroke-linecap="round" stroke-linejoin="round"/>
<path d="M50.9828 19.9869C50.3604 25.7837 42.116 25.3296 42.116 25.3296C42.116 25.3296 29.4656 42.4906 42.9808 40.1007C56.496 37.7109 51.9885 18.7269 51.9885 18.7269" fill="#F38C79"/>
<path d="M9.74347 64.6858C18.3279 63.4604 7.15326 78.8337 7.15326 78.8337L9.37042 66.7612" fill="#F38C79"/>
<path d="M37.4214 67.2052C32.5916 74.1577 19.2321 74.6675 19.2321 74.6675L20.743 78.1518L14.3493 83.0932C14.3493 83.0932 11.9113 94.7066 28.3727 89.6413C44.8341 84.576 37.0669 72.8775 37.0669 72.8775" fill="#F38C79"/>
</g>
<path d="M24.1062 111.176L1 105.032L27.0899 6.78633C28.1399 2.83247 31.58 0.315625 34.7735 1.16475L46.3148 4.23359C49.5084 5.08272 51.246 8.97637 50.1961 12.9302L24.1062 111.176Z" stroke="#020000" stroke-width="0.5" stroke-linecap="round" stroke-linejoin="round"/>
<path d="M7.25526 128.052C6.85626 127.952 6.49236 127.744 6.20329 127.452C5.91421 127.159 5.71105 126.793 5.61597 126.393L1 105.032L24.1062 111.176L9.50173 127.425C9.22064 127.726 8.86244 127.943 8.46626 128.053C8.07008 128.164 7.65116 128.163 7.25526 128.052Z" fill="white"/>
<mask id="mask5_25_3102" style="mask-type:luminance" maskUnits="userSpaceOnUse" x="1" y="105" width="24" height="24">
<path d="M7.25526 128.052C6.85626 127.952 6.49236 127.744 6.20329 127.452C5.91421 127.159 5.71105 126.793 5.61597 126.393L1 105.032L24.1062 111.176L9.50173 127.425C9.22064 127.726 8.86244 127.943 8.46626 128.053C8.07008 128.164 7.65116 128.163 7.25526 128.052Z" fill="white"/>
</mask>
<g mask="url(#mask5_25_3102)">
<path d="M29.5726 109.558L-2.87262 100.93L-4.39836 106.668L28.0469 115.296L29.5726 109.558Z" fill="#242424" stroke="#020000" stroke-width="0.5" stroke-linecap="round" stroke-linejoin="round"/>
<path d="M14.9662 134.056C16.3968 128.378 13.009 122.629 7.39938 121.216C1.78974 119.803 -3.91753 123.26 -5.34816 128.938C-6.77878 134.616 -3.39102 140.365 2.21862 141.778C7.82825 143.192 13.5355 139.735 14.9662 134.056Z" fill="white" stroke="#020000" stroke-width="0.5" stroke-linecap="round" stroke-linejoin="round"/>
</g>
<path d="M7.25526 128.052C6.85626 127.952 6.49236 127.744 6.20329 127.452C5.91421 127.159 5.71105 126.793 5.61597 126.393L1 105.032L24.1062 111.176L9.50173 127.425C9.22064 127.726 8.86244 127.943 8.46626 128.053C8.07008 128.164 7.65116 128.163 7.25526 128.052Z" stroke="#020000" stroke-width="0.5" stroke-linecap="round" stroke-linejoin="round"/>
<path d="M8.67493 116.488L9.77126 115.832" stroke="#020000" stroke-width="0.5" stroke-linecap="round" stroke-linejoin="round"/>
<path d="M34.0748 73.5858C34.3126 73.8079 24.9451 76.7295 19.2322 74.6675C18.2178 74.3396 18.0239 74.2788 18.2393 75.1315C20.9829 78.0888 25.0141 75.166 21.634 79.3242C18.0788 82.4824 12.0103 81.3173 14.3493 83.0932C21.4796 87.6834 44.0045 74.718 42.8775 76.0619L34.0748 73.5858Z" fill="white"/>
<mask id="mask6_25_3102" style="mask-type:luminance" maskUnits="userSpaceOnUse" x="13" y="73" width="30" height="12">
<path d="M34.0748 73.5858C34.3126 73.8079 24.9451 76.7295 19.2322 74.6675C18.2178 74.3396 18.0239 74.2788 18.2393 75.1315C20.9829 78.0888 25.0141 75.166 21.634 79.3242C18.0788 82.4824 12.0103 81.3173 14.3493 83.0932C21.4796 87.6834 44.0045 74.718 42.8775 76.0619L34.0748 73.5858Z" fill="white"/>
</mask>
<g mask="url(#mask6_25_3102)">
<path d="M32.2237 72.5938C30.1782 73.2056 28.3515 80.3029 31.8025 83.132C38.9728 80.7626 35.3017 74.6395 34.6749 71.3134" fill="#EFF1F7"/>
</g>
<path d="M34.0748 73.5858C34.3126 73.8079 24.9451 76.7295 19.2322 74.6675C18.2178 74.3396 18.0239 74.2788 18.2393 75.1315C20.9829 78.0888 25.0141 75.166 21.634 79.3242C18.0788 82.4824 12.0103 81.3173 14.3493 83.0932C21.4796 87.6834 44.0045 74.718 42.8775 76.0619L34.0748 73.5858Z" stroke="#020000" stroke-width="0.5" stroke-linecap="round" stroke-linejoin="round"/>
<path d="M61.8108 48.2569C57.9841 56.9312 58.7089 59.6837 52.8205 61.8352C45.2524 65.7882 30.6755 73.4023 29.9801 73.7652C29.1903 73.2097 33.2682 89.385 41.3845 92.6513C44.5174 93.9121 67.4519 72.4632 69.3889 68.142C71.6307 60.6964 77.8604 44.3621 67.9244 39.1632" fill="#242424"/>
<mask id="mask7_25_3102" style="mask-type:luminance" maskUnits="userSpaceOnUse" x="29" y="39" width="45" height="54">
<path d="M61.8108 48.2569C57.9841 56.9312 58.7089 59.6837 52.8205 61.8352C45.2524 65.7882 30.6755 73.4023 29.9801 73.7652C29.1903 73.2097 33.2682 89.385 41.3845 92.6513C44.5174 93.9121 67.4519 72.4632 69.3889 68.142C71.6307 60.6964 77.8604 44.3621 67.9244 39.1632" fill="white"/>
</mask>
<g mask="url(#mask7_25_3102)">
<path d="M34.2325 69.2305C31.8801 70.0562 40.3695 87.631 45.2039 91.341C45.4395 91.5743 45.7231 91.7534 46.035 91.866C46.3468 91.9786 46.6795 92.0219 47.0098 91.9928C47.0098 91.9928 48.0335 91.1691 47.6111 90.5103C44.8406 86.1895 33.3359 70.1719 36.9456 68.1425" fill="white"/>
<path d="M34.2325 69.2305C31.8801 70.0562 40.3695 87.631 45.2039 91.341C45.4395 91.5743 45.7231 91.7534 46.035 91.866C46.3468 91.9786 46.6795 92.0219 47.0098 91.9928C47.0098 91.9928 48.0335 91.1691 47.6111 90.5103C44.8406 86.1895 33.3359 70.1719 36.9456 68.1425" stroke="#020000" stroke-width="0.5" stroke-linecap="round" stroke-linejoin="round"/>
</g>
<path d="M61.8108 48.2569C57.9841 56.9312 58.7089 59.6837 52.8205 61.8352C45.2524 65.7882 30.6755 73.4023 29.9801 73.7652C29.1903 73.2097 33.2682 89.385 41.3845 92.6513C44.5174 93.9121 67.4519 72.4632 69.3889 68.142C71.6307 60.6964 77.8604 44.3621 67.9244 39.1632" stroke="#020000" stroke-width="0.5" stroke-linecap="round" stroke-linejoin="round"/>
<path d="M55.9756 27.5051L59.6508 36.0652C59.6508 36.0652 53.7239 39.7815 48.8438 39.5842C46.4138 39.4853 50.5032 36.0652 50.5032 36.0652L49.1087 24.1438L55.9756 27.5051Z" fill="white"/>
<mask id="mask8_25_3102" style="mask-type:luminance" maskUnits="userSpaceOnUse" x="48" y="24" width="12" height="16">
<path d="M55.9756 27.5051L59.6508 36.0652C59.6508 36.0652 53.7239 39.7815 48.8438 39.5842C46.4138 39.4853 50.5032 36.0652 50.5032 36.0652L49.1087 24.1438L55.9756 27.5051Z" fill="white"/>
</mask>
<g mask="url(#mask8_25_3102)">
<path d="M52.7896 30.8374C54.5901 36.7672 50.5033 36.0652 50.5033 36.0652L48.3558 29.8345L53.4346 29.6335" fill="#EFF1F7"/>
</g>
<path d="M55.9756 27.5051L59.6508 36.0652C59.6508 36.0652 53.7239 39.7815 48.8438 39.5842C46.4138 39.4853 50.5032 36.0652 50.5032 36.0652L49.1087 24.1438L55.9756 27.5051Z" stroke="#020000" stroke-width="0.5" stroke-linecap="round" stroke-linejoin="round"/>
<path d="M57.2212 59.8593C57.9053 60.5487 58.7786 61.0197 59.7306 61.2125" stroke="#020000" stroke-width="0.5" stroke-linecap="round" stroke-linejoin="round"/>
<path d="M83.9208 109.264C83.2926 109.768 82.557 110.122 81.7708 110.297" stroke="#020000" stroke-width="0.5" stroke-linecap="round" stroke-linejoin="round"/>
<path d="M54.1971 105.643C53.4587 106.47 52.578 107.159 51.5968 107.675" stroke="#020000" stroke-width="0.5" stroke-linecap="round" stroke-linejoin="round"/>
<path d="M39.7674 111.626C40.7676 112.18 41.866 112.534 43.0014 112.669" stroke="#020000" stroke-width="0.5" stroke-linecap="round" stroke-linejoin="round"/>
<path d="M127.893 135.362H129.361" stroke="#020000" stroke-width="0.5" stroke-linecap="round" stroke-linejoin="round"/>
<path d="M56.8129 35.4375L56.3595 36.0132" stroke="#020000" stroke-width="0.5" stroke-linecap="round" stroke-linejoin="round"/>
<path d="M48.0748 15.5863C49.5159 15.5348 50.2622 12.3953 52.7327 12.9614C55.2032 13.5275 54.1738 10.9284 57.2105 13.1672C60.2473 15.4061 59.1663 19.7974 59.1663 19.7974L48.0748 15.5863Z" fill="white"/>
<mask id="mask9_25_3102" style="mask-type:luminance" maskUnits="userSpaceOnUse" x="48" y="12" width="12" height="8">
<path d="M48.0748 15.5863C49.5159 15.5348 50.2622 12.3953 52.7327 12.9614C55.2032 13.5275 54.1738 10.9284 57.2105 13.1672C60.2473 15.4061 59.1663 19.7974 59.1663 19.7974L48.0748 15.5863Z" fill="white"/>
</mask>
<g mask="url(#mask9_25_3102)">
<path d="M60.6277 16.0194C55.8239 16.8606 50.733 14.2176 52.0089 16.0194C53.2847 17.8213 59.9383 19.7974 59.9383 19.7974L60.8334 18.3225" fill="#EFF1F7"/>
</g>
<path d="M48.0748 15.5863C49.5159 15.5348 50.2622 12.3953 52.7327 12.9614C55.2032 13.5275 54.1738 10.9284 57.2105 13.1672C60.2473 15.4061 59.1663 19.7974 59.1663 19.7974L48.0748 15.5863Z" stroke="#020000" stroke-width="0.5" stroke-linecap="round" stroke-linejoin="round"/>
<path d="M51.3025 29.0454L49.2328 19.8174L45.8359 20.1927C45.9343 21.2011 44.363 23.9687 43.6907 26.5532C42.6441 26.6031 41.6352 26.959 40.789 27.5768C39.9429 28.1947 39.2967 29.0473 38.9305 30.029C38.5644 31.0107 38.4944 32.0783 38.7293 33.0993C38.9642 34.1204 39.4936 35.0501 40.2519 35.7731C41.0102 36.4961 41.9641 36.9806 42.9952 37.1666C44.0263 37.3526 45.0893 37.2319 46.0524 36.8194C47.0155 36.4069 47.8364 35.7209 48.4133 34.8462C48.9902 33.9716 49.2976 32.9469 49.2976 31.8991C49.2976 31.7212 49.2888 31.5455 49.2712 31.3721C50.1658 30.8171 50.8733 30.0066 51.3025 29.0454Z" fill="#020000"/>
<mask id="mask10_25_3102" style="mask-type:luminance" maskUnits="userSpaceOnUse" x="38" y="19" width="14" height="19">
<path d="M51.3025 29.0454L49.2328 19.8174L45.8359 20.1927C45.9343 21.2011 44.363 23.9687 43.6907 26.5532C42.6441 26.6031 41.6352 26.959 40.789 27.5768C39.9429 28.1947 39.2967 29.0473 38.9305 30.029C38.5644 31.0107 38.4944 32.0783 38.7293 33.0993C38.9642 34.1204 39.4936 35.0501 40.2519 35.7731C41.0102 36.4961 41.9641 36.9806 42.9952 37.1666C44.0263 37.3526 45.0893 37.2319 46.0524 36.8194C47.0155 36.4069 47.8364 35.7209 48.4133 34.8462C48.9902 33.9716 49.2976 32.9469 49.2976 31.8991C49.2976 31.7212 49.2888 31.5455 49.2712 31.3721C50.1658 30.8171 50.8733 30.0066 51.3025 29.0454Z" fill="white"/>
</mask>
<g mask="url(#mask10_25_3102)">
<path d="M44.9735 26.2799C44.4266 30.6891 45.2941 34.1983 49.2976 34.584C53.301 34.9697 50.4093 31.3251 50.4093 31.3251" fill="#000002"/>
</g>
<path d="M51.3025 29.0454L49.2328 19.8174L45.8359 20.1927C45.9343 21.2011 44.363 23.9687 43.6907 26.5532C42.6441 26.6031 41.6352 26.959 40.789 27.5768C39.9429 28.1947 39.2967 29.0473 38.9305 30.029C38.5644 31.0107 38.4944 32.0783 38.7293 33.0993C38.9642 34.1204 39.4936 35.0501 40.2519 35.7731C41.0102 36.4961 41.9641 36.9806 42.9952 37.1666C44.0263 37.3526 45.0893 37.2319 46.0524 36.8194C47.0155 36.4069 47.8364 35.7209 48.4133 34.8462C48.9902 33.9716 49.2976 32.9469 49.2976 31.8991C49.2976 31.7212 49.2888 31.5455 49.2712 31.3721C50.1658 30.8171 50.8733 30.0066 51.3025 29.0454Z" stroke="#020000" stroke-width="0.5" stroke-linecap="round" stroke-linejoin="round"/>
<path d="M45.836 20.1928C47.1741 23.2292 42.0544 26.9201 47.4522 32.6202C52.1873 37.6203 59.5266 21.9943 57.262 19.5238C54.9973 17.0533 45.836 20.1928 45.836 20.1928Z" fill="white"/>
<mask id="mask11_25_3102" style="mask-type:luminance" maskUnits="userSpaceOnUse" x="44" y="18" width="14" height="16">
<path d="M45.836 20.1928C47.1741 23.2292 42.0544 26.9201 47.4522 32.6202C52.1873 37.6203 59.5266 21.9943 57.262 19.5238C54.9973 17.0533 45.836 20.1928 45.836 20.1928Z" fill="white"/>
</mask>
<g mask="url(#mask11_25_3102)">
<path opacity="0.5" d="M42.3958 28.1883C42.5011 28.7621 43.3623 29.1449 44.3488 29.0443C45.3697 28.94 46.1442 28.3598 46.0455 27.7479C45.946 27.1311 45.0045 26.7479 43.9765 26.8915C42.9834 27.0301 42.2893 27.6104 42.3958 28.1883Z" fill="#EFF1F7"/>
<path d="M44.7151 21.5879C46.99 22.5219 50.7061 20.9122 50.7061 20.9122C51.1012 21.5021 51.7052 21.9205 52.3963 22.083C53.0875 22.2456 53.8146 22.1403 54.4312 21.7884L54.7599 19.2032H45.8175L45.0692 19.7974" fill="#EFF1F7"/>
<path d="M53.6792 28.35C52.0971 29.159 51.5829 30.6697 52.0089 33.6006C52.4349 36.5315 53.9038 32.0007 53.9038 32.0007" fill="#EFF1F7"/>
</g>
<path d="M45.836 20.1928C47.1741 23.2292 42.0544 26.9201 47.4522 32.6202C52.1873 37.6203 59.5266 21.9943 57.262 19.5238C54.9973 17.0533 45.836 20.1928 45.836 20.1928Z" stroke="#020000" stroke-width="0.5" stroke-linecap="round" stroke-linejoin="round"/>
<path d="M50.9828 19.9869C50.674 22.8177 54.4316 21.7883 54.4316 21.7883C56.6962 26.8322 52.3033 29.7034 52.6983 31.253C53.0933 32.8026 57.0004 33.9436 59.1106 33.0415C58.39 20.5074 59.3725 16.7958 55.0492 16.7958C50.7259 16.7958 50.9828 19.9869 50.9828 19.9869Z" fill="#020000" stroke="#020000" stroke-width="0.5" stroke-linecap="round" stroke-linejoin="round"/>
<path d="M51.9886 18.7268C52.4239 21.6338 45.733 21.3007 45.733 21.3007C45.733 21.3007 43.1596 19.2234 46.1962 18.5758C48.1144 18.1977 50.0926 18.2492 51.9886 18.7268Z" fill="#020000"/>
<mask id="mask12_25_3102" style="mask-type:luminance" maskUnits="userSpaceOnUse" x="44" y="18" width="9" height="4">
<path d="M51.9886 18.7268C52.4239 21.6338 45.733 21.3007 45.733 21.3007C45.733 21.3007 43.1596 19.2234 46.1962 18.5758C48.1144 18.1977 50.0926 18.2492 51.9886 18.7268Z" fill="white"/>
</mask>
<g mask="url(#mask12_25_3102)">
<path d="M41.724 22.0698C44.0689 20.1967 50.2692 19.9211 51.3024 19.6813C52.3355 19.4416 47.474 18.5173 47.474 18.5173L43.3928 18.9956" fill="#000002"/>
</g>
<path d="M51.9886 18.7268C52.4239 21.6338 45.733 21.3007 45.733 21.3007C45.733 21.3007 43.1596 19.2234 46.1962 18.5758C48.1144 18.1977 50.0926 18.2492 51.9886 18.7268Z" stroke="#020000" stroke-width="0.5" stroke-linecap="round" stroke-linejoin="round"/>
<path d="M44.7151 19.5751C44.7151 19.5751 46.3073 14.9942 48.362 15.2002C50.4168 15.4063 57.6852 15.6595 59.6326 18.5758C60.7471 20.2451 59.2828 24.6246 58.5737 24.8942C54.6131 17.5458 44.7151 19.5751 44.7151 19.5751Z" fill="white"/>
<mask id="mask13_25_3102" style="mask-type:luminance" maskUnits="userSpaceOnUse" x="44" y="15" width="17" height="10">
<path d="M44.7151 19.5751C44.7151 19.5751 46.3073 14.9942 48.362 15.2002C50.4168 15.4063 57.6852 15.6595 59.6326 18.5758C60.7471 20.2451 59.2828 24.6246 58.5737 24.8942C54.6131 17.5458 44.7151 19.5751 44.7151 19.5751Z" fill="white"/>
</mask>
<g mask="url(#mask13_25_3102)">
<path d="M43.1547 17.9999C50.8253 16.2624 53.6868 17.7471 53.0907 17.8393C52.4945 17.9314 46.1667 17.0238 43.9452 18.4116C41.7238 19.7994 45.3406 15.7455 45.3406 15.7455" fill="#EFF1F7"/>
</g>
<path d="M44.7151 19.5751C44.7151 19.5751 46.3073 14.9942 48.362 15.2002C50.4168 15.4063 57.6852 15.6595 59.6326 18.5758C60.7471 20.2451 59.2828 24.6246 58.5737 24.8942C54.6131 17.5458 44.7151 19.5751 44.7151 19.5751Z" stroke="#020000" stroke-width="0.5" stroke-linecap="round" stroke-linejoin="round"/>
<path d="M49.3255 25.1525C49.0375 27.2162 51.0638 27.5001 51.4905 25.5123C51.7944 23.3463 49.7278 23.24 49.3255 25.1525Z" fill="white"/>
<mask id="mask14_25_3102" style="mask-type:luminance" maskUnits="userSpaceOnUse" x="49" y="23" width="3" height="4">
<path d="M49.3255 25.1525C49.0375 27.2162 51.0638 27.5001 51.4905 25.5123C51.7944 23.3463 49.7278 23.24 49.3255 25.1525Z" fill="white"/>
</mask>
<g mask="url(#mask14_25_3102)">
<path d="M49.417 25.1823C49.3772 26.1899 50.4046 26.3395 50.534 25.2123C50.5739 24.1816 49.5424 24.0795 49.417 25.1823Z" fill="#020000"/>
</g>
<path d="M45.0964 24.7427C44.8381 26.615 46.4986 26.8472 46.8682 25.0499C47.1394 23.0938 45.4473 23.007 45.0964 24.7427Z" fill="white"/>
<mask id="mask15_25_3102" style="mask-type:luminance" maskUnits="userSpaceOnUse" x="45" y="23" width="2" height="4">
<path d="M45.0964 24.7427C44.8381 26.615 46.4986 26.8472 46.8682 25.0499C47.1394 23.0938 45.4473 23.007 45.0964 24.7427Z" fill="white"/>
</mask>
<g mask="url(#mask15_25_3102)">
<path d="M45.1269 25.016C45.0883 25.9293 45.9303 26.0594 46.043 25.0395C46.0818 24.1073 45.2364 24.0163 45.1269 25.016Z" fill="#020000"/>
</g>
<path d="M45.4801 21.6995C47.557 21.5562 47.9537 22.5581 46.5998 22.7166C45.3251 22.8657 44.2253 21.7859 45.4801 21.6995Z" fill="#020000"/>
<path d="M50.1771 22.4291C52.7548 21.9364 53.4313 22.9709 51.75 23.3626C50.1752 23.7294 48.6312 22.7247 50.1771 22.4291Z" fill="#020000"/>
<path d="M46.9915 27.3357C47.3814 26.8047 47.3611 25.5373 47.7772 25.706C48.2314 25.6342 47.7826 26.861 48.0398 27.497C48.0977 27.5949 48.1251 27.7078 48.1184 27.8214C48.1118 27.9349 48.0715 28.0439 48.0025 28.1343C47.9336 28.2248 47.8393 28.2926 47.7316 28.3292C47.6239 28.3657 47.5077 28.3693 47.398 28.3395L47.3958 28.338L47.3934 28.3387C47.2822 28.3282 47.1761 28.2873 47.0867 28.2204C46.9973 28.1536 46.928 28.0634 46.8865 27.9598C46.845 27.8562 46.8328 27.7431 46.8513 27.633C46.8699 27.5229 46.9184 27.4201 46.9915 27.3357Z" fill="#EFF1F7"/>
<path opacity="0.5" d="M48.9324 28.3853C49.0377 28.9591 49.8989 29.3419 50.8854 29.2413C51.9063 29.1371 52.6808 28.5568 52.582 27.9449C52.4826 27.3281 51.541 26.9449 50.5131 27.0885C49.5204 27.2271 48.8264 27.8074 48.9324 28.3853Z" fill="#EFF1F7"/>
<path d="M57.6852 37.2514C60.6412 37.2514 63.0375 34.8551 63.0375 31.8991C63.0375 28.9431 60.6412 26.5468 57.6852 26.5468C54.7291 26.5468 52.3328 28.9431 52.3328 31.8991C52.3328 34.8551 54.7291 37.2514 57.6852 37.2514Z" fill="#020000"/>
<path d="M57.6852 37.2514C60.6412 37.2514 63.0375 34.8551 63.0375 31.8991C63.0375 28.9431 60.6412 26.5468 57.6852 26.5468C54.7291 26.5468 52.3328 28.9431 52.3328 31.8991C52.3328 34.8551 54.7291 37.2514 57.6852 37.2514Z" stroke="#020000" stroke-width="0.5" stroke-linecap="round" stroke-linejoin="round"/>
<path d="M54.6986 24.4013C57.9576 23.0658 59.3532 29.2303 53.9038 27.7158Z" fill="white"/>
<path d="M54.6986 24.4013C57.9576 23.0658 59.3532 29.2303 53.9038 27.7158" stroke="#020000" stroke-width="0.5" stroke-linecap="round" stroke-linejoin="round"/>
<path d="M47.2129 29.6251C47.2026 29.6366 47.1948 29.65 47.19 29.6647C47.1853 29.6794 47.1838 29.6949 47.1855 29.7102C47.1872 29.7255 47.1922 29.7403 47.2001 29.7536C47.208 29.7668 47.2186 29.7782 47.2313 29.787C47.9213 30.3364 48.7329 30.0607 48.8744 29.5062C49.1887 28.5842 47.8669 28.8708 47.2129 29.6251Z" fill="#020000"/>
<mask id="mask16_25_3102" style="mask-type:luminance" maskUnits="userSpaceOnUse" x="47" y="28" width="2" height="3">
<path d="M47.2129 29.6251C47.2026 29.6366 47.1948 29.65 47.19 29.6647C47.1853 29.6794 47.1838 29.6949 47.1855 29.7102C47.1872 29.7255 47.1922 29.7403 47.2001 29.7536C47.208 29.7668 47.2186 29.7782 47.2313 29.787C47.9213 30.3364 48.7329 30.0607 48.8744 29.5062C49.1887 28.5842 47.8669 28.8708 47.2129 29.6251Z" fill="white"/>
</mask>
<g mask="url(#mask16_25_3102)">
<path d="M49.1918 29.3918C49.922 29.8339 48.6134 31.0592 47.8912 30.1707C47.6052 29.6569 48.4183 29.0184 49.1918 29.3918Z" fill="#020000"/>
<path d="M47.2657 29.4257C47.3209 29.7664 48.8701 29.3247 48.2736 28.887L47.3475 29.3362" fill="white"/>
</g>
<path d="M55.4664 25.8019C56.46 24.9195 56.5792 26.8868 55.4664 26.5689" stroke="#020000" stroke-width="0.5" stroke-linecap="round" stroke-linejoin="round"/>
<path d="M56.0103 31.7779C55.7063 31.7798 55.4049 31.7215 55.1235 31.6065C54.8422 31.4915 54.5863 31.3219 54.3707 31.1076C54.155 30.8933 53.9839 30.6385 53.8672 30.3578C53.7504 30.0772 53.6903 29.7762 53.6903 29.4722C53.6903 29.1682 53.7504 28.8672 53.8672 28.5865C53.9839 28.3058 54.155 28.051 54.3707 27.8367C54.5863 27.6224 54.8422 27.4529 55.1235 27.3378C55.4049 27.2228 55.7063 27.1646 56.0103 27.1664C56.0685 27.1664 56.1243 27.1895 56.1654 27.2307C56.2066 27.2718 56.2297 27.3276 56.2297 27.3858C56.2297 27.444 56.2066 27.4998 56.1654 27.5409C56.1243 27.5821 56.0685 27.6052 56.0103 27.6052C55.551 27.6058 55.1081 27.776 54.7665 28.083C54.4249 28.39 54.2087 28.8123 54.1593 29.2689C54.1098 29.7256 54.2307 30.1843 54.4987 30.5574C54.7666 30.9304 55.1629 31.1913 55.6114 31.2902C56.0599 31.3891 56.5291 31.319 56.9291 31.0933C57.3291 30.8675 57.6317 30.5021 57.7789 30.067C57.9261 29.632 57.9075 29.1579 57.7267 28.7357C57.5459 28.3135 57.2156 27.9729 56.7991 27.7791C56.7465 27.7545 56.7058 27.71 56.686 27.6554C56.6661 27.6007 56.6688 27.5405 56.6933 27.4878C56.7183 27.4353 56.7628 27.3948 56.8174 27.3749C56.872 27.355 56.9322 27.3574 56.9851 27.3815C57.4608 27.6034 57.8466 27.981 58.0787 28.4518C58.3108 28.9226 58.3754 29.4585 58.2618 29.9709C58.1482 30.4834 57.8631 30.9418 57.4538 31.2704C57.0444 31.5989 56.5352 31.7779 56.0103 31.7779Z" fill="#000002"/>
<path d="M9.37045 66.7611C14.016 64.9801 10.9262 74.5204 9.44364 75.5946C7.96109 76.6688 6.33558 67.9247 9.37045 66.7611Z" fill="white" stroke="#020000" stroke-width="0.5" stroke-linecap="round" stroke-linejoin="round"/>
<path d="M51.5665 72.8774L47.6126 75.5945" stroke="#020000" stroke-width="0.5" stroke-linecap="round" stroke-linejoin="round"/>
<path d="M54.763 44.2064C55.3035 44.4572 55.9076 44.5374 56.4948 44.4363" stroke="#020000" stroke-width="0.5" stroke-linecap="round" stroke-linejoin="round"/>
</svg>
