<svg width="138" height="138" viewBox="0 0 138 138" fill="none" xmlns="http://www.w3.org/2000/svg">
<path d="M48.9429 31.2041C48.7212 31.5541 48.4479 31.8687 48.1323 32.1371" stroke="#020000" stroke-width="0.5" stroke-linecap="round" stroke-linejoin="round"/>
<path d="M83.9226 46.3446C83.152 45.3153 82.7103 30.087 78.103 30.7825C77.197 31.917 78.6958 33.9127 78.2086 34.8426C78.139 34.9754 77.6883 34.7067 77.5255 34.7736C76.6161 35.706 79.7496 36.3663 79.8067 37.8133C79.2103 43.2869 81.8294 43.6667 83.9226 46.3446Z" fill="white"/>
<mask id="mask0_25_3262" style="mask-type:luminance" maskUnits="userSpaceOnUse" x="77" y="30" width="7" height="17">
<path d="M83.9226 46.3446C83.152 45.3153 82.7103 30.087 78.103 30.7825C77.197 31.917 78.6958 33.9127 78.2086 34.8426C78.139 34.9754 77.6883 34.7067 77.5255 34.7736C76.6161 35.706 79.7496 36.3663 79.8067 37.8133C79.2103 43.2869 81.8294 43.6667 83.9226 46.3446Z" fill="white"/>
</mask>
<g mask="url(#mask0_25_3262)">
<path d="M79.5708 38.5779C81.8586 39.0757 85.2211 41.3049 85.2211 41.3049C83.0907 42.3308 77.0515 41.5927 78.5149 38.5146" fill="#EFF1F7"/>
</g>
<path d="M83.9226 46.3446C83.152 45.3153 82.7103 30.087 78.103 30.7825C77.197 31.917 78.6958 33.9127 78.2086 34.8426C78.139 34.9754 77.6883 34.7067 77.5255 34.7736C76.6161 35.706 79.7496 36.3663 79.8067 37.8133C79.2103 43.2869 81.8294 43.6667 83.9226 46.3446Z" stroke="#020000" stroke-width="0.5" stroke-linecap="round" stroke-linejoin="round"/>
<path d="M79.7615 38.5181C79.7615 38.5181 85.0348 38.8893 87.17 41.1224C89.3052 43.3555 85.6253 58.6512 82.455 59.5883C79.2847 60.5254 59.6257 49.1497 61.9086 45.0011C64.1915 40.8525 78.7767 50.6218 78.7767 50.6218L79.7615 38.5181Z" fill="#FEA897"/>
<mask id="mask1_25_3262" style="mask-type:luminance" maskUnits="userSpaceOnUse" x="61" y="38" width="27" height="22">
<path d="M79.7615 38.5181C79.7615 38.5181 85.0348 38.8893 87.17 41.1224C89.3052 43.3555 85.6253 58.6512 82.455 59.5883C79.2847 60.5254 59.6257 49.1497 61.9086 45.0011C64.1915 40.8525 78.7767 50.6218 78.7767 50.6218L79.7615 38.5181Z" fill="white"/>
</mask>
<g mask="url(#mask1_25_3262)">
<path d="M85.4743 59.6426C85.5257 57.545 79.6146 57.2276 79.3657 59.643C79.3143 61.7405 85.2254 62.0578 85.4743 59.6426Z" fill="#F38C79"/>
</g>
<path d="M79.7615 38.5181C79.7615 38.5181 85.0348 38.8893 87.17 41.1224C89.3052 43.3555 85.6253 58.6512 82.455 59.5883C79.2847 60.5254 59.6257 49.1497 61.9086 45.0011C64.1915 40.8525 78.7767 50.6218 78.7767 50.6218L79.7615 38.5181Z" stroke="#020000" stroke-width="0.5" stroke-linecap="round" stroke-linejoin="round"/>
<path d="M60.1924 14.7209L70.6964 5.15002L111.402 49.7961C113.04 51.5929 113.191 54.1218 111.739 55.4447L106.493 60.2252C105.041 61.5481 102.536 61.1636 100.898 59.3671L60.1924 14.7209Z" fill="#FEA897"/>
<mask id="mask2_25_3262" style="mask-type:luminance" maskUnits="userSpaceOnUse" x="60" y="5" width="53" height="57">
<path d="M60.1924 14.7209L70.6964 5.15002L111.402 49.7961C113.04 51.5929 113.191 54.1218 111.739 55.4447L106.493 60.2252C105.041 61.5481 102.536 61.1636 100.898 59.3671L60.1924 14.7209Z" fill="white"/>
</mask>
<g mask="url(#mask2_25_3262)">
<path d="M104.372 49.0956L106 47.6121L67.4224 5.27256L65.7942 6.75609L104.372 49.0956Z" fill="#F38C79"/>
<path d="M101.444 51.764L103.072 50.2805L64.4939 7.94102L62.8657 9.42455L101.444 51.764Z" fill="#F38C79"/>
<path d="M98.6342 54.324L100.262 52.8405L61.6844 10.501L60.0562 11.9845L98.6342 54.324Z" fill="#F38C79"/>
<path d="M103.029 65.1947L117.076 52.3954L110.851 45.5635L96.8041 58.3629L103.029 65.1947Z" fill="white" stroke="#020000" stroke-width="0.5" stroke-linecap="round" stroke-linejoin="round"/>
<path d="M98.3899 57.3599L111.183 45.7034L109.782 44.1662L96.9894 55.8227L98.3899 57.3599Z" fill="white" stroke="#020000" stroke-width="0.5" stroke-linecap="round" stroke-linejoin="round"/>
<path d="M88.6118 28.2019C89.9885 25.2349 90.1534 35.0233 90.9021 35.8444C91.6508 36.6656 103.608 42.1242 94.7816 51.584C85.9548 61.0437 83.547 47.7244 83.547 47.7244L85.1581 38.4551" fill="#F38C79"/>
</g>
<path d="M60.1924 14.7209L70.6964 5.15002L111.402 49.7961C113.04 51.5929 113.191 54.1218 111.739 55.4447L106.493 60.2252C105.041 61.5481 102.536 61.1636 100.898 59.3671L60.1924 14.7209Z" stroke="#020000" stroke-width="0.5" stroke-linecap="round" stroke-linejoin="round"/>
<path d="M57.1794 0.870274C57.3577 0.702991 57.5786 0.587912 57.8179 0.537597C58.0571 0.487282 58.3056 0.503665 58.5362 0.584959L70.6964 5.14993L60.1923 14.7209L56.7699 2.19452C56.7103 1.95746 56.7169 1.70857 56.7891 1.47503C56.8614 1.24149 56.9964 1.03229 57.1794 0.870274Z" fill="white"/>
<mask id="mask3_25_3262" style="mask-type:luminance" maskUnits="userSpaceOnUse" x="56" y="0" width="15" height="15">
<path d="M57.1794 0.870274C57.3577 0.702991 57.5786 0.587912 57.8179 0.537597C58.0571 0.487282 58.3056 0.503665 58.5362 0.584959L70.6964 5.14993L60.1923 14.7209L56.7699 2.19452C56.7103 1.95746 56.7169 1.70857 56.7891 1.47503C56.8614 1.24149 56.9964 1.03229 57.1794 0.870274Z" fill="white"/>
</mask>
<g mask="url(#mask3_25_3262)">
<path d="M59.2422 17.9736L73.9919 4.5343L71.6151 1.92579L56.8655 15.3651L59.2422 17.9736Z" fill="#242424" stroke="#020000" stroke-width="0.5" stroke-linecap="round" stroke-linejoin="round"/>
<path d="M60.5493 3.14158C63.0603 0.792831 63.1686 -3.17168 60.7911 -5.71342C58.4137 -8.25515 54.4508 -8.41159 51.9397 -6.06284C49.4287 -3.71409 49.3204 0.250422 51.6979 2.79215C54.0753 5.33388 58.0382 5.49033 60.5493 3.14158Z" fill="white" stroke="#020000" stroke-width="0.5" stroke-linecap="round" stroke-linejoin="round"/>
</g>
<path d="M57.1794 0.870274C57.3577 0.702991 57.5786 0.587912 57.8179 0.537597C58.0571 0.487282 58.3056 0.503665 58.5362 0.584959L70.6964 5.14993L60.1923 14.7209L56.7699 2.19452C56.7103 1.95746 56.7169 1.70857 56.7891 1.47503C56.8614 1.24149 56.9964 1.03229 57.1794 0.870274Z" stroke="#020000" stroke-width="0.5" stroke-linecap="round" stroke-linejoin="round"/>
<path d="M62.502 5.30017L62.4771 6.05917" stroke="#020000" stroke-width="0.5" stroke-linecap="round" stroke-linejoin="round"/>
<path d="M72.652 113.088H66.3952C63.3434 124.963 60.5839 136.758 61.7239 136.758C63.965 136.758 75.2528 138.098 75.2548 137.16C75.2588 135.543 65.9167 135.352 67.1039 131.193C67.5918 129.486 70.0091 120.687 72.652 113.088Z" fill="#242424" stroke="#020000" stroke-width="0.5" stroke-linecap="round" stroke-linejoin="round"/>
<path d="M80.7746 89.92L72.8058 89.0161C72.5611 90.0822 69.342 101.622 66.3952 113.088H72.652C76.4477 102.175 80.7746 89.92 80.7746 89.92Z" fill="white"/>
<mask id="mask4_25_3262" style="mask-type:luminance" maskUnits="userSpaceOnUse" x="66" y="89" width="15" height="25">
<path d="M80.7746 89.92L72.8058 89.0161C72.5611 90.0822 69.342 101.622 66.3952 113.088H72.652C76.4477 102.175 80.7746 89.92 80.7746 89.92Z" fill="white"/>
</mask>
<g mask="url(#mask4_25_3262)">
<path d="M64.4067 97.5582C76.3744 96.5968 74.0511 93.5615 80.14 91.7192C86.229 89.8769 72.8058 89.0159 72.8058 89.0159L70.2224 92.3706" fill="#EFF1F7"/>
</g>
<path d="M80.7746 89.92L72.8058 89.0161C72.5611 90.0822 69.342 101.622 66.3952 113.088H72.652C76.4477 102.175 80.7746 89.92 80.7746 89.92Z" stroke="#020000" stroke-width="0.5" stroke-linecap="round" stroke-linejoin="round"/>
<path d="M49.3841 88.7039L49.4165 80.9387C41.6646 77.0959 34.2689 73.1321 33.957 75.0313C33.5063 77.776 33.2367 88.7144 33.8996 88.7844C36.0931 89.0159 36.0645 80.2898 38.7792 81.7825C39.8935 82.3952 44.4268 85.3883 49.3841 88.7039Z" fill="#242424" stroke="#020000" stroke-width="0.5" stroke-linecap="round" stroke-linejoin="round"/>
<path d="M66.2016 96.9508L74.3098 87.7146C65.7115 92.8159 55.0367 83.634 49.4165 80.9388C49.4165 80.9059 49.3846 88.5814 49.3841 88.7039C56.5755 92.7818 63.3357 100.401 66.2016 96.9508Z" fill="white"/>
<mask id="mask5_25_3262" style="mask-type:luminance" maskUnits="userSpaceOnUse" x="49" y="80" width="26" height="18">
<path d="M66.2016 96.9508L74.3098 87.7146C65.7115 92.8159 55.0367 83.634 49.4165 80.9388C49.4165 80.9059 49.3846 88.5814 49.3841 88.7039C56.5755 92.7818 63.3357 100.401 66.2016 96.9508Z" fill="white"/>
</mask>
<g mask="url(#mask5_25_3262)">
<path d="M53.4957 81.6647C53.613 92.6926 66.3953 94.1274 66.3953 94.1274L56.8748 81.6647" fill="#EFF1F7"/>
</g>
<path d="M66.2016 96.9508L74.3098 87.7146C65.7115 92.8159 55.0367 83.634 49.4165 80.9388C49.4165 80.9059 49.3846 88.5814 49.3841 88.7039C56.5755 92.7818 63.3357 100.401 66.2016 96.9508Z" stroke="#020000" stroke-width="0.5" stroke-linecap="round" stroke-linejoin="round"/>
<path d="M64.7795 61.0401C66.2737 76.4105 46.0004 76.6022 56.8897 88.4469C66.332 98.7179 88.7693 94.4556 86.0712 83.7296C83.0512 71.7236 74.9698 59.6426 74.9698 59.6426L64.7795 61.0401Z" fill="white"/>
<mask id="mask6_25_3262" style="mask-type:luminance" maskUnits="userSpaceOnUse" x="53" y="59" width="34" height="36">
<path d="M64.7795 61.0401C66.2737 76.4105 46.0004 76.6022 56.8897 88.4469C66.332 98.7179 88.7693 94.4556 86.0712 83.7296C83.0512 71.7236 74.9698 59.6426 74.9698 59.6426L64.7795 61.0401Z" fill="white"/>
</mask>
<g mask="url(#mask6_25_3262)">
<path d="M52.544 75.2325C66.2971 76.473 64.6645 68.0486 70.249 67.8214C75.8336 67.5941 78.8878 61.7356 78.8878 61.7356C54.5776 59.1485 63.4896 56.3827 52.544 75.2325Z" fill="white" stroke="#020000" stroke-width="0.5" stroke-linecap="round" stroke-linejoin="round"/>
<path d="M90.8399 79.5965L85.4266 75.2382L81.0814 80.6352L75.6844 76.2899L71.3392 81.6869L65.9421 77.3416L61.5968 82.7387L56.1997 78.3933C49.0858 86.264 53.1339 83.5426 57.1535 88.1547C50.2855 95.7327 54.0076 93.2923 58.2965 97.8161L62.6419 92.4191L68.0389 96.7644L72.3842 91.3673L77.7811 95.7127L82.1265 90.3156L87.5234 94.661L91.8818 89.2477L86.5352 84.9431L90.8399 79.5965Z" fill="#242424" stroke="#020000" stroke-width="0.5" stroke-linecap="round" stroke-linejoin="round"/>
<path d="M62.6387 92.3899C54.5905 86.4134 57.9061 88.5307 61.6 82.7678C69.648 88.7443 66.3327 86.6269 62.6387 92.3899Z" fill="#242424" stroke="#020000" stroke-width="0.5" stroke-linecap="round" stroke-linejoin="round"/>
<path d="M72.381 91.3381C64.3328 85.3618 67.6484 87.4789 71.3423 81.7161C79.3904 87.6926 76.075 85.5752 72.381 91.3381Z" fill="#242424" stroke="#020000" stroke-width="0.5" stroke-linecap="round" stroke-linejoin="round"/>
<path d="M82.1233 90.2864L76.7928 85.9946L81.0846 80.6642C89.1327 86.6409 85.8173 84.5235 82.1233 90.2864Z" fill="#242424" stroke="#020000" stroke-width="0.5" stroke-linecap="round" stroke-linejoin="round"/>
<path d="M88.7478 60.3122L83.3345 55.9539L78.9893 61.3509L73.5922 57.0056L69.2471 62.4027L63.85 58.0573L59.5048 63.4544L54.1078 59.1091C46.9939 66.9798 51.0419 64.2584 55.0616 68.8705C48.1935 76.4484 51.9156 74.0081 56.2046 78.5319L60.5499 73.1349L65.947 77.4801L70.2922 72.0831L75.6892 76.4284L80.0345 71.0314L85.4314 75.3767L89.7898 69.9635L84.4432 65.6588L88.7478 60.3122Z" fill="#242424" stroke="#020000" stroke-width="0.5" stroke-linecap="round" stroke-linejoin="round"/>
<path d="M60.5467 73.1055C52.4986 67.1291 55.8141 69.2464 59.508 63.4835C67.5561 69.4601 64.2407 67.3428 60.5467 73.1055Z" fill="#242424" stroke="#020000" stroke-width="0.5" stroke-linecap="round" stroke-linejoin="round"/>
<path d="M70.2891 72.0539C62.241 66.0775 65.5565 68.1948 69.2503 62.4319C77.2984 68.4084 73.9831 66.291 70.2891 72.0539Z" fill="#242424" stroke="#020000" stroke-width="0.5" stroke-linecap="round" stroke-linejoin="round"/>
<path d="M80.0314 71.0022L74.7008 66.7104L78.9926 61.38C87.0407 67.3566 83.7253 65.2395 80.0314 71.0022Z" fill="#242424" stroke="#020000" stroke-width="0.5" stroke-linecap="round" stroke-linejoin="round"/>
</g>
<path d="M64.7795 61.0401C66.2737 76.4105 46.0004 76.6022 56.8897 88.4469C66.332 98.7179 88.7693 94.4556 86.0712 83.7296C83.0512 71.7236 74.9698 59.6426 74.9698 59.6426L64.7795 61.0401Z" stroke="#020000" stroke-width="0.5" stroke-linecap="round" stroke-linejoin="round"/>
<path d="M61.8128 38.734C60.5935 40.966 66.2484 45.6036 66.2484 45.6036C56.9986 47.6226 60.2126 45.2768 57.2534 39.8183L61.8128 38.734Z" fill="white"/>
<mask id="mask7_25_3262" style="mask-type:luminance" maskUnits="userSpaceOnUse" x="57" y="38" width="10" height="9">
<path d="M61.8128 38.734C60.5935 40.966 66.2484 45.6036 66.2484 45.6036C56.9986 47.6226 60.2126 45.2768 57.2534 39.8183L61.8128 38.734Z" fill="white"/>
</mask>
<g mask="url(#mask7_25_3262)">
<path d="M64.6288 42.9164C63.8752 43.9471 58.8244 40.5599 61.8488 39.0252C61.8285 38.9919 64.5323 42.7854 64.6288 42.9164Z" fill="#EFF1F7"/>
</g>
<path d="M61.8128 38.734C60.5935 40.966 66.2484 45.6036 66.2484 45.6036C56.9986 47.6226 60.2126 45.2768 57.2534 39.8183L61.8128 38.734Z" stroke="#020000" stroke-width="0.5" stroke-linecap="round" stroke-linejoin="round"/>
<path d="M56.769 45.264C59.1609 40.5691 64.7341 43.0785 66.2484 44.2174C67.7627 45.3562 58.0014 45.9549 58.0014 45.9549" fill="white"/>
<path d="M56.769 45.264C59.1609 40.5691 64.7341 43.0785 66.2484 44.2174C67.7627 45.3562 58.0014 45.9549 58.0014 45.9549" stroke="#020000" stroke-width="0.5" stroke-linecap="round" stroke-linejoin="round"/>
<path d="M80.0167 62.7611C83.4478 61.1772 71.6481 44.2829 63.2178 43.5504C52.1204 42.5863 58.7358 62.8819 61.9085 64.8633C62.3776 65.1563 71.8997 66.5082 80.0167 62.7611Z" fill="#FEA897"/>
<mask id="mask8_25_3262" style="mask-type:luminance" maskUnits="userSpaceOnUse" x="57" y="43" width="24" height="23">
<path d="M80.0167 62.7611C83.4478 61.1772 71.6481 44.2829 63.2178 43.5504C52.1204 42.5863 58.7358 62.8819 61.9085 64.8633C62.3776 65.1563 71.8997 66.5082 80.0167 62.7611Z" fill="white"/>
</mask>
<g mask="url(#mask8_25_3262)">
<path d="M66.411 47.2538L64.5687 47.4125C64.5687 47.4125 61.7735 53.0468 72.9547 56.4319C79.8056 58.506 81.1237 64.8653 84.185 65.0465C92.3485 65.5295 75.8752 51.0251 75.8752 51.0251L66.411 47.2538Z" fill="#F38C79"/>
<path d="M50.2756 57.854C65.8834 57.6677 61.6458 32.9579 53.6124 45.3453C52.7033 46.8029 51.6018 48.1312 50.3377 49.2944C50.3239 49.2613 50.2866 57.7681 50.2756 57.854Z" fill="#F38C79"/>
</g>
<path d="M80.0167 62.7611C83.4478 61.1772 71.6481 44.2829 63.2178 43.5504C52.1204 42.5863 58.7358 62.8819 61.9085 64.8633C62.3776 65.1563 71.8997 66.5082 80.0167 62.7611Z" stroke="#020000" stroke-width="0.5" stroke-linecap="round" stroke-linejoin="round"/>
<path d="M87.1048 39.6854C87.2717 39.4439 90.5232 24.8577 87.4614 25.5335C86.0337 26.7315 86.8018 29.5945 85.3368 29.6873C85.4048 31.1448 86.9061 31.5227 85.9196 33.2995C83.2713 37.3579 85.6755 37.1999 87.1048 39.6854Z" fill="white"/>
<mask id="mask9_25_3262" style="mask-type:luminance" maskUnits="userSpaceOnUse" x="84" y="25" width="5" height="15">
<path d="M87.1048 39.6854C87.2717 39.4439 90.5232 24.8577 87.4614 25.5335C86.0337 26.7315 86.8018 29.5945 85.3368 29.6873C85.4048 31.1448 86.9061 31.5227 85.9196 33.2995C83.2713 37.3579 85.6755 37.1999 87.1048 39.6854Z" fill="white"/>
</mask>
<g mask="url(#mask9_25_3262)">
<path d="M89.0154 37.2423C88.1852 33.3269 85.2211 34.1725 85.2211 34.1725C84.7052 38.6929 86.4627 37.2348 88.3848 38.0562" fill="#EFF1F7"/>
</g>
<path d="M87.1048 39.6854C87.2717 39.4439 90.5232 24.8577 87.4614 25.5335C86.0337 26.7315 86.8018 29.5945 85.3368 29.6873C85.4048 31.1448 86.9061 31.5227 85.9196 33.2995C83.2713 37.3579 85.6755 37.1999 87.1048 39.6854Z" stroke="#020000" stroke-width="0.5" stroke-linecap="round" stroke-linejoin="round"/>
<path d="M63.4999 44.498C86.3454 43.808 77.0273 51.5671 85.2211 34.1727C84.7316 34.1727 93.3213 38.4907 94.7812 41.3926C98.6489 49.0807 90.012 55.2517 82.3354 55.6987C73.8668 56.1917 64.5724 51.597 64.5724 51.597" fill="#FEA897"/>
<path d="M63.4999 44.498C86.3454 43.808 77.0273 51.5671 85.2211 34.1727C84.7316 34.1727 93.3213 38.4907 94.7812 41.3926C98.6489 49.0807 90.012 55.2517 82.3354 55.6987C73.8668 56.1917 64.5724 51.597 64.5724 51.597" stroke="#020000" stroke-width="0.5" stroke-linecap="round" stroke-linejoin="round"/>
<path d="M70.5649 58.7302C73.9314 59.1433 74.9084 57.6385 74.9084 57.6385C81.6972 64.3765 69.7075 64.1807 70.5649 58.7302Z" fill="white" stroke="#020000" stroke-width="0.5" stroke-linecap="round" stroke-linejoin="round"/>
<path d="M43.3268 49.3794C42.1252 49.9156 40.7845 50.0573 39.4973 49.7841" stroke="#020000" stroke-width="0.5" stroke-linecap="round" stroke-linejoin="round"/>
<path d="M80.0167 46.2433C80.1937 46.5847 80.276 46.9674 80.2549 47.3515" stroke="#020000" stroke-width="0.5" stroke-linecap="round" stroke-linejoin="round"/>
<path d="M65.8974 55.3289C66.0152 55.5508 66.1909 55.7367 66.4059 55.8669C66.6208 55.997 66.867 56.0665 67.1182 56.0681" stroke="#020000" stroke-width="0.5" stroke-linecap="round" stroke-linejoin="round"/>
<path d="M67.2549 81.4163C67.7329 81.8302 68.3046 82.1214 68.9205 82.2647C69.5363 82.408 70.1779 82.399 70.7895 82.2386" stroke="#020000" stroke-width="0.5" stroke-linecap="round" stroke-linejoin="round"/>
<path d="M72.6382 105.313L73.1909 105.681" stroke="#020000" stroke-width="0.5" stroke-linecap="round" stroke-linejoin="round"/>
<path d="M41.6944 80.8047L41.3261 81.3573" stroke="#020000" stroke-width="0.5" stroke-linecap="round" stroke-linejoin="round"/>
<path d="M86.5583 29.4198L86.739 29.6073" stroke="#020000" stroke-width="0.5" stroke-linecap="round" stroke-linejoin="round"/>
<path d="M57.1071 40.3005C51.4757 34.2614 59.3653 33.834 61.2024 32.2864C65.1135 35.8525 66.6039 40.9091 60.3468 41.3924" fill="white"/>
<path d="M57.1071 40.3005C51.4757 34.2614 59.3653 33.834 61.2024 32.2864C65.1135 35.8525 66.6039 40.9091 60.3468 41.3924" stroke="#020000" stroke-width="0.5" stroke-linecap="round" stroke-linejoin="round"/>
<path d="M62.3456 35.6375C62.2988 35.6683 62.2463 35.6895 62.1912 35.6998C62.1361 35.7101 62.0795 35.7093 62.0248 35.6974C61.97 35.6855 61.9181 35.6629 61.8722 35.6307C61.8263 35.5985 61.7873 35.5576 61.7574 35.5101L61.3572 34.8954C61.2941 34.8004 61.2707 34.6845 61.2921 34.5725C61.3135 34.4605 61.3779 34.3613 61.4715 34.2963C61.5183 34.2654 61.5708 34.2442 61.6259 34.2339C61.681 34.2236 61.7376 34.2244 61.7924 34.2362C61.8472 34.2481 61.8991 34.2707 61.945 34.3029C61.9909 34.3351 62.0299 34.3761 62.0597 34.4236L62.4599 35.0384C62.523 35.1333 62.5464 35.2492 62.525 35.3613C62.5037 35.4733 62.4393 35.5724 62.3456 35.6375Z" fill="#020000"/>
<path d="M62.5034 34.4468C63.4769 35.89 62.0459 36.8432 61.0441 35.568C60.0706 34.1249 61.5016 33.1717 62.5034 34.4468Z" fill="white"/>
<mask id="mask10_25_3262" style="mask-type:luminance" maskUnits="userSpaceOnUse" x="60" y="33" width="3" height="4">
<path d="M62.5034 34.4468C63.4769 35.89 62.0459 36.8432 61.0441 35.568C60.0706 34.1249 61.5016 33.1717 62.5034 34.4468Z" fill="white"/>
</mask>
<g mask="url(#mask10_25_3262)">
<path d="M62.7076 34.423C63.1423 35.1398 62.4523 35.6874 61.9164 34.9405C61.4814 34.224 62.1716 33.6761 62.7076 34.423Z" fill="#020000"/>
</g>
<path d="M62.6611 34.2986C63.7698 34.6586 64.4776 34.3442 64.6771 34.6474C64.8766 34.9506 64.4777 35.9357 63.7483 36.3506" fill="white"/>
<path d="M62.6611 34.2986C63.7698 34.6586 64.4776 34.3442 64.6771 34.6474C64.8766 34.9506 64.4777 35.9357 63.7483 36.3506" stroke="#020000" stroke-width="0.5" stroke-linecap="round" stroke-linejoin="round"/>
<path d="M60.9914 32.8693C59.8991 33.5339 59.9597 34.1481 60.6698 33.7787C61.3798 33.4093 61.705 32.4352 60.9914 32.8693Z" fill="#020000"/>
<path opacity="0.5" d="M60.8645 37.5301C61.3483 37.3108 61.6056 36.8354 61.4392 36.4681C61.2727 36.1009 60.7455 35.981 60.2617 36.2003C59.7779 36.4196 59.5206 36.8951 59.687 37.2623C59.8535 37.6295 60.3806 37.7494 60.8645 37.5301Z" fill="#EFF1F7"/>
<path d="M63.1743 37.4656C63.3591 37.4205 63.533 37.3385 63.6853 37.2245" stroke="#020000" stroke-width="0.5" stroke-linecap="round" stroke-linejoin="round"/>
<path d="M57.2071 37.5304C57.3336 33.8747 61.5657 34.6194 63.0196 32.5013C64.0363 29.8504 58.8582 28.0857 55.306 30.3183C49.6963 33.8442 50.9314 40.4613 47.8095 41.7585C47.3278 41.9442 46.8022 41.9843 46.2978 41.874C37.1932 40.1097 25.5369 35.3832 25.2706 47.2967C24.62 76.436 68.7334 61.3037 57.2071 37.5304Z" fill="#020000" stroke="#020000" stroke-width="0.5" stroke-linecap="round" stroke-linejoin="round"/>
<path d="M58.8582 39.4735C56.4178 40.4998 54.5755 36.1652 58.7427 37.4594Z" fill="white"/>
<path d="M58.8582 39.4735C56.4178 40.4998 54.5755 36.1652 58.7427 37.4594" stroke="#020000" stroke-width="0.5" stroke-linecap="round" stroke-linejoin="round"/>
<path d="M57.5642 37.8901C56.7523 37.5992 56.9996 38.7775 57.9743 38.5594" stroke="#020000" stroke-width="0.5" stroke-linecap="round" stroke-linejoin="round"/>
</svg>
